<?xml version="1.0" encoding="UTF-8"?>
<svg width="40px" height="40px" viewBox="0 0 40 40" version="1.1" xmlns="http://www.w3.org/2000/svg" xmlns:xlink="http://www.w3.org/1999/xlink">
    <!-- Generator: Sketch 48 (47235) - http://www.bohemiancoding.com/sketch -->
    <title>logoImg</title>
    <desc>Created with Sketch.</desc>
    <defs></defs>
    <g id="landing-links" stroke="none" stroke-width="1" fill="none" fill-rule="evenodd" transform="translate(-296.000000, -80.000000)">
        <g id="Group-3" transform="translate(296.000000, 80.000000)" fill="#5048F0">
            <g id="Group-7">
                <g id="logoImg">
                    <path d="M17.4596078,29.3792459 C17.2333032,29.1530015 17.106184,28.8460332 17.106184,28.5260332 C17.106184,28.2060332 17.2333032,27.8991252 17.4596078,27.6728205 C20.3723077,24.7601207 29.9032278,15.2292006 32.8159276,12.3165008 C33.0422323,12.0901961 33.1693514,11.7832881 33.1693514,11.4632881 C33.1693514,11.1432278 33.0422323,10.8363198 32.8159276,10.6100151 C31.8690196,9.66316742 30.3499246,8.1440724 29.4030166,7.1971644 C29.1767722,6.97085973 28.8698643,6.84374057 28.5498039,6.84374057 C28.2298039,6.84374057 27.9228959,6.97085973 27.6965913,7.1971644 C27.1761086,7.71764706 26.5131222,8.38063348 25.9926395,8.90111614 C25.7663348,9.12742081 25.4594268,9.25453997 25.1393665,9.25453997 C24.8193665,9.25453997 24.5124585,9.12742081 24.2861538,8.90111614 C23.7650075,8.37996983 23.1008748,7.7158371 22.5797285,7.1946908 C22.3534238,6.96838612 22.2263047,6.66147813 22.2263047,6.34147813 C22.2263047,6.02147813 22.3534238,5.71457014 22.5797285,5.48826546 C23.8906184,4.17737557 26.3857014,1.68229261 27.6965913,0.371402715 C28.1678431,-0.0998491704 28.931825,-0.0998491704 29.4030166,0.371402715 C31.6018703,2.57019608 37.4428356,8.41122172 39.6416893,10.6100151 C39.867994,10.8363198 39.9951131,11.1432278 39.9951131,11.4632881 C39.9951131,11.7832881 39.867994,12.0901961 39.6416893,12.3165008 C36.7289894,15.2292006 27.1980694,24.7601207 24.2853695,27.6728205 C24.0590649,27.8991252 23.9319457,28.2060332 23.9319457,28.5260332 C23.9319457,28.8460332 24.0590649,29.1530015 24.2853695,29.3792459 C25.2322172,30.3261538 26.7513122,31.8452489 27.6982202,32.7921569 C28.1694721,33.2633484 28.933454,33.2633484 29.4047059,32.7921569 C30.3510106,31.8458522 31.8687179,30.3280845 32.8151433,29.3816591 C33.0415083,29.1552941 33.1686275,28.8483258 33.1685671,28.5282051 C33.1685068,28.2081448 33.041267,27.9011765 32.8148416,27.6749321 C32.2935747,27.1540271 31.6294419,26.4903167 31.108175,25.9694118 C30.88181,25.7432278 30.7545701,25.4363198 30.7545098,25.1162594 C30.7543891,24.7962594 30.881448,24.4892911 31.1076923,24.2629261 C31.6286576,23.7415988 32.2926094,23.0773454 32.813635,22.5560181 C33.2847059,22.0847059 34.0486878,22.0844646 34.52,22.5555354 C35.8319155,23.8666063 38.3295324,26.3627149 39.641629,27.6739668 C39.8680543,27.9002715 39.9952338,28.2071795 39.9952941,28.5273002 C39.9953544,28.8473605 39.8682353,29.1543891 39.6418703,29.3806938 C37.4430166,31.5795475 31.6032579,37.4193544 29.4046456,39.6179125 C28.933454,40.0891282 28.1694721,40.0891282 27.6982202,39.6179125 C25.4994268,37.419083 19.6584012,31.5780995 17.4596078,29.3792459 Z" id="Fill-1"></path>
                    <path d="M22.5780995,10.6092308 C22.8044042,10.8355354 22.9315234,11.1424434 22.9315234,11.4624434 C22.9315234,11.7824434 22.8044042,12.0893514 22.5780995,12.3156561 C19.6653997,15.228356 10.1344796,24.759276 7.22177979,27.6719759 C6.99547511,27.8982805 6.86835596,28.2051885 6.86835596,28.5252489 C6.86835596,28.8452489 6.99547511,29.1521569 7.22177979,29.3784615 C8.16862745,30.3253092 9.68772247,31.8444042 10.6346305,32.7913122 C10.8609351,33.0176169 11.1678431,33.144736 11.4878431,33.144736 C11.8079035,33.144736 12.1148115,33.0176169 12.3410558,32.7913122 C12.8615385,32.2708296 13.5245852,31.6078431 14.0450679,31.0873605 C14.2713725,30.8610558 14.5782805,30.7339367 14.8982805,30.7339367 C15.2182805,30.7339367 15.5251885,30.8610558 15.7514932,31.0873605 C16.2726395,31.6085068 16.9367722,32.2726395 17.4579186,32.7937858 C17.6842232,33.0200905 17.8113424,33.3269985 17.8113424,33.6469985 C17.8113424,33.9669985 17.6842232,34.2739065 17.4579186,34.5002232 C16.1470287,35.8111312 13.652006,38.306178 12.3410558,39.617092 C11.8698643,40.0883137 11.1058824,40.0883137 10.6346305,39.617092 C8.4358371,37.4182624 2.59481146,31.5772549 0.395957768,29.3784615 C0.169713424,29.1521569 0.0425942685,28.8452489 0.0425942685,28.5251885 C0.0425942685,28.2051885 0.169713424,27.8982805 0.395957768,27.6719759 C3.30865762,24.759276 12.839638,15.228356 15.7523379,12.3156561 C15.9785822,12.0893514 16.1057617,11.7824434 16.1057617,11.4624434 C16.1057617,11.1424434 15.9786425,10.8355354 15.7523379,10.6092308 C14.8054299,9.66232278 13.2863348,8.14322775 12.3394268,7.19631976 C11.8682353,6.72512821 11.1041931,6.72512821 10.6330015,7.19631976 C9.68669683,8.14262443 8.16892911,9.66039216 7.22250377,10.6068175 C6.9961991,10.8331825 6.86901961,11.1401508 6.86907994,11.4602715 C6.86914027,11.7803318 6.99638009,12.0873002 7.22280543,12.3135445 C7.7440724,12.8344495 8.40826546,13.4981599 8.9294721,14.0190649 C9.1558371,14.2453092 9.28307692,14.5521569 9.28319759,14.8722172 C9.28331825,15.1922172 9.15625943,15.4991855 8.93001508,15.7255505 C8.40898944,16.2468778 7.74503771,16.9111312 7.2240724,17.4324585 C6.75300151,17.9037707 5.98901961,17.9040121 5.51764706,17.4329412 C4.20573152,16.1218703 1.70811463,13.6257617 0.3960181,12.3145098 C0.169653092,12.0882051 0.042413273,11.7812971 0.0423529412,11.4611765 C0.0422926094,11.1411161 0.169472097,10.8341478 0.395776772,10.6077828 C2.59463047,8.40892911 8.43444947,2.56911011 10.6330015,0.370558069 C11.1041931,-0.100633484 11.8682353,-0.100633484 12.3394268,0.370558069 C14.5382805,2.56941176 20.3792459,8.41037707 22.5780995,10.6092308 Z" id="Fill-2"></path>
                </g>
            </g>
        </g>
    </g>
</svg>